<?xml version="1.0" encoding="UTF-8" standalone="no"?>
<!-- Created with Inkscape (http://www.inkscape.org/) -->

<svg
   version="1.1"
   id="svg2"
   xml:space="preserve"
   width="843.39197"
   height="327.7713"
   viewBox="0 0 843.39193 327.7713"
   sodipodi:docname="699993fa412cf7b34826e57b3f988fc8.ai"
   xmlns:inkscape="http://www.inkscape.org/namespaces/inkscape"
   xmlns:sodipodi="http://sodipodi.sourceforge.net/DTD/sodipodi-0.dtd"
   xmlns="http://www.w3.org/2000/svg"
   xmlns:svg="http://www.w3.org/2000/svg"><defs
     id="defs6"><clipPath
       clipPathUnits="userSpaceOnUse"
       id="clipPath16"><path
         d="M 0,600 H 800 V 0 H 0 Z"
         id="path14" /></clipPath></defs><sodipodi:namedview
     id="namedview4"
     pagecolor="#ffffff"
     bordercolor="#666666"
     borderopacity="1.0"
     inkscape:pageshadow="2"
     inkscape:pageopacity="0.0"
     inkscape:pagecheckerboard="0" /><g
     id="g8"
     inkscape:groupmode="layer"
     inkscape:label="699993fa412cf7b34826e57b3f988fc8"
     transform="matrix(1.3333333,0,0,-1.3333333,-111.27426,562.16089)"><g
       id="g10"><g
         id="g12"
         clip-path="url(#clipPath16)"><g
           id="g18"
           transform="translate(467.7666,348.6353)"><path
             d="m 0,0 c -5.748,30.332 -35.615,54.083 -68.075,54.083 -32.461,0 -62.377,-23.751 -68.076,-54.083 -0.325,-2.683 1.587,-5.12 4.27,-5.444 0.206,-0.025 0.414,-0.037 0.622,-0.035 H -4.818 c 2.702,-0.009 4.899,2.174 4.908,4.876 0,0.136 -0.005,0.272 -0.016,0.407 V 0 Z m 216.238,-24.461 c 7.141,-0.014 12.927,-5.799 12.94,-12.94 v -103.618 c -0.027,-7.128 -5.813,-12.892 -12.94,-12.892 h -568.602 c -7.134,-0.013 -12.927,5.758 -12.94,12.892 v 103.618 c 0,7.146 5.793,12.94 12.94,12.94 h 568.602"
             style="fill:#00aa4e;fill-opacity:1;fill-rule:nonzero;stroke:none"
             id="path20" /></g><g
           id="g22"
           transform="translate(426.4277,370.4546)"><path
             d="m 0,0 c 2.482,1.007 4.04,3.491 3.864,6.164 0.194,4.427 -3.238,8.172 -7.665,8.366 -0.356,0.015 -0.713,0.007 -1.067,-0.025 -3.285,0.139 -6.429,-1.342 -8.415,-3.962 V 10.42 l 3.694,-3.913 c 1.021,1.297 2.558,2.084 4.207,2.152 1.605,0.231 3.093,-0.882 3.323,-2.487 0.039,-0.27 0.04,-0.545 0.004,-0.815 0,-2.055 -1.272,-3.033 -3.694,-3.058 h -2.274 v -5.552 h 2.25 c 2.691,0 4.525,-1.175 4.549,-4.11 0.195,-1.963 -1.239,-3.711 -3.201,-3.906 -0.204,-0.02 -0.41,-0.023 -0.614,-0.008 -2.074,0.112 -3.935,1.313 -4.893,3.156 v 0.146 l -4.549,-2.959 v -0.147 c 1.807,-3.461 5.416,-5.601 9.319,-5.528 4.937,-0.46 9.311,3.169 9.771,8.106 0.047,0.501 0.052,1.005 0.014,1.507 0.208,3.161 -1.741,6.065 -4.746,7.069 m -26.002,-2.862 c 3.066,1.963 4.913,5.361 4.893,9.002 0,5.308 -3.572,8.244 -8.807,8.244 -3.326,0.035 -6.465,-1.531 -8.439,-4.208 l 3.547,-4.183 0.122,0.172 c 1.062,1.57 2.782,2.57 4.672,2.715 2.129,0 3.205,-0.979 3.229,-3.278 0,-1.761 -0.709,-2.911 -2.739,-4.403 -5.7,-4.061 -8.586,-7.975 -8.904,-17.123 v -0.196 h 17.514 v 5.431 h -11.081 c 0.269,2.984 2.03,4.892 5.993,7.876 m -27.348,16.585 c -0.394,-2.311 -2.331,-4.046 -4.672,-4.183 h -0.171 V 5.993 h 4.061 v -22.26 h 5.699 V 14.09 h -4.892 z m 312.786,-174.971 c 0,0.709 -0.464,1.002 -1.125,1.002 h -1.908 v -2.152 h 1.908 c 0.535,-0.083 1.035,0.282 1.118,0.817 0.011,0.077 0.014,0.156 0.007,0.235 m 1.835,0.146 c 0.129,-1.099 -0.552,-2.131 -1.614,-2.446 l 1.566,-3.131 h -1.909 l -1.419,2.911 h -1.369 v -2.911 h -1.81 v 7.975 h 3.693 c 1.342,0.162 2.561,-0.794 2.723,-2.135 0.012,-0.103 0.017,-0.208 0.017,-0.311 m 3.913,-1.59 c 0,-4.053 -3.285,-7.339 -7.337,-7.339 -4.053,0 -7.339,3.286 -7.339,7.339 0,4.052 3.286,7.338 7.339,7.338 3.943,0.11 7.228,-2.998 7.337,-6.942 0.004,-0.132 0.004,-0.264 0,-0.396 m -1.295,0 c 0.013,3.309 -2.66,6.004 -5.969,6.017 -3.31,0.013 -6.004,-2.659 -6.018,-5.968 -0.013,-3.31 2.659,-6.004 5.969,-6.018 h 0.049 c 3.242,-0.055 5.914,2.529 5.969,5.771 10e-4,0.066 10e-4,0.131 0,0.198 m -12.916,82.678 v 13.112 h -37.964 v -13.112 h 11.84 v -74.9 h 14.064 v 74.827 z m -42.123,-74.9 v 13.063 h -20.058 v 26.711 h 14.432 v 13.063 h -14.432 v 22.015 h 18.836 v 13.111 h -32.95 v -88.061 z m -43.1,0 v 13.063 H 145.52 v 26.711 h 14.457 v 13.063 H 145.52 v 22.015 h 18.86 v 13.111 h -33.072 v -88.061 z m -57.68,0 -7.339,38.698 h -3.522 v -38.698 H 83.021 v 88.061 h 18.371 c 10.91,0 19.837,-5.919 19.837,-24.315 0,-10.151 -2.885,-17.123 -7.802,-20.987 l 8.586,-42.759 z m -0.881,63.037 c 0,9.638 -1.883,12.94 -6.799,12.94 h -3.254 v -25.783 h 2.886 c 4.77,0 7.167,3.523 7.167,12.843 m -30.919,11.79 V -67 H 38.184 v -13.111 h 11.814 v -74.827 h 14.09 v 74.827 z m -58.952,-76.197 c 11.962,0 18.738,9.002 18.738,22.016 0,12.059 -4.77,20.84 -14.946,31.139 -6.923,7.338 -9.051,11.056 -9.051,17.245 0,5.504 1.493,7.632 4.526,7.632 3.033,0 4.598,-2.642 5.626,-11.277 l 13.184,2.764 c -1.614,12.94 -6.506,21.282 -18.81,21.282 -12.304,0 -18.151,-9.198 -18.151,-21.527 0,-10.078 4.428,-18.37 13.357,-27.396 7.925,-8.781 10.542,-12.72 10.542,-21.135 0,-5.65 -1.492,-7.925 -4.892,-7.925 -3.132,0 -5.039,2.642 -6.042,13.331 L -2.3,-132.605 c 1.273,-14.945 6.923,-23.728 19.57,-23.728 m -47.994,1.395 v 13.063 H -50.66 v 26.711 h 14.457 v 13.063 H -50.66 v 22.015 h 18.836 v 13.111 h -32.95 v -88.061 z m -45.473,0 v 88.061 h -13.821 l -5.92,-26.908 c -2.106,-8.348 -3.74,-16.809 -4.892,-25.341 -1.075,8.502 -2.627,16.939 -4.648,25.268 l -5.772,26.785 h -13.821 v -88.06 h 12.744 v 22.993 c 0,10.299 -0.489,21.599 -0.587,29.916 1.248,-6.653 3.988,-20.376 6.116,-28.913 l 6.164,-26.662 6.286,26.662 c 2.275,8.904 5.015,22.015 6.287,28.913 -0.245,-9.051 -0.636,-19.251 -0.636,-29.916 v -22.798 z m -70.375,0 -2.447,19.349 h -10.249 l -2.25,-19.349 h -13.967 l 13.967,88.061 h 15.068 l 13.943,-88.061 z m -5.626,48.115 c -0.734,6.287 -1.639,13.43 -2.006,20.353 -0.269,-6.923 -1.126,-14.189 -1.884,-20.475 l -1.883,-15.998 h 7.803 z m -45.67,-49.485 c 11.913,0 18.738,9.002 18.738,22.016 0,12.059 -4.892,20.84 -14.971,31.139 -6.898,7.338 -9.026,11.056 -9.026,17.245 0,5.504 1.468,7.632 4.501,7.632 3.033,0 4.647,-2.642 5.675,-11.277 l 13.185,2.764 c -1.639,12.94 -6.531,21.282 -18.86,21.282 -12.329,0 -18.102,-9.198 -18.102,-21.527 0,-10.078 4.379,-18.37 13.332,-27.396 7.925,-8.781 10.543,-12.72 10.543,-21.135 0,-5.65 -1.492,-7.925 -4.893,-7.925 -3.13,0 -4.892,2.642 -6.041,13.331 l -13.479,-2.446 c 1.297,-14.945 6.948,-23.728 19.57,-23.728 m -24.437,1.395 v 13.063 h -19.985 v 26.711 h 14.456 v 13.063 h -14.456 v 22.015 h 18.86 v 13.111 h -32.925 v -88.061 z m -60.444,-1.443 c -12.598,0 -18.224,8.782 -19.569,23.727 l 13.429,2.446 c 0.979,-10.689 2.911,-13.331 6.042,-13.331 3.523,0 5.015,2.275 5.015,7.925 0,8.415 -2.618,12.354 -10.543,21.135 -8.928,9.026 -13.332,17.318 -13.332,27.396 0,12.232 6.042,21.527 18.102,21.527 12.059,0 17.123,-8.342 18.835,-21.281 l -13.185,-2.765 c -1.003,8.635 -2.446,11.277 -5.65,11.277 -3.205,0 -4.525,-2.129 -4.525,-7.632 0,-6.189 2.152,-9.785 9.05,-17.246 10.176,-10.297 14.971,-19.079 14.971,-31.138 0,-12.99 -6.801,-22.016 -18.738,-22.016"
             style="fill:#ffffff;fill-opacity:1;fill-rule:nonzero;stroke:none"
             id="path24" /></g><g
           id="g26"
           transform="translate(696.9687,207.6162)"><path
             d="m 0,0 c -0.026,-7.128 -5.812,-12.892 -12.939,-12.892 h -568.627 c -7.134,-0.013 -12.927,5.758 -12.94,12.891 V 0 103.618 c 0,7.146 5.793,12.94 12.94,12.94 h 568.602 c 7.141,-0.014 12.927,-5.799 12.94,-12.94 z m -297.253,195.029 c 32.46,0 62.327,-23.752 68.075,-54.084 v -0.195 c 0.217,-2.693 -1.791,-5.052 -4.484,-5.268 -0.136,-0.011 -0.272,-0.016 -0.407,-0.016 h -126.49 c -2.702,-0.019 -4.908,2.155 -4.927,4.857 -0.002,0.208 0.01,0.416 0.035,0.622 5.797,30.332 35.713,54.084 68.198,54.084 M -11.056,135.466 H -206.33 c -7.387,50.215 -54.083,84.934 -104.298,77.548 -40.13,-5.903 -71.644,-37.417 -77.548,-77.548 H -583.45 c -16.606,-0.04 -30.05,-13.506 -30.063,-30.112 V -1.713 c 0.013,-16.605 13.457,-30.071 30.063,-30.111 h 572.394 c 16.61,0.04 30.06,13.502 30.087,30.111 v 107.067 c -0.027,16.61 -13.477,30.072 -30.087,30.112"
             style="fill:#ffd300;fill-opacity:1;fill-rule:nonzero;stroke:none"
             id="path28" /></g></g></g></g></svg>
